<svg width="303" height="60" fill="none" xmlns="http://www.w3.org/2000/svg"><path d="M14.779 5.237c-1.213-1.783-2.987-2.678-5.31-2.678-.725 0-1.434.098-2.133.293a5.99 5.99 0 0 0-1.882.89 4.452 4.452 0 0 0-1.336 1.552c-.335.632-.504 1.378-.504 2.23 0 1.24.35 2.206 1.048 2.89.7.684 1.563 1.25 2.596 1.686a28.36 28.36 0 0 0 3.393 1.182c1.229.35 2.36.813 3.393 1.399a8.046 8.046 0 0 1 2.596 2.308c.699.956 1.049 2.261 1.049 3.917 0 1.239-.268 2.36-.797 3.356a7.733 7.733 0 0 1-2.092 2.504 9.895 9.895 0 0 1-2.91 1.552 10.15 10.15 0 0 1-3.239.545c-1.68 0-3.274-.319-4.79-.95C2.349 27.28 1.064 26.235 0 24.791l2.56-1.825c.591 1.008 1.419 1.815 2.473 2.421 1.058.607 2.308.91 3.747.91.694 0 1.393-.108 2.087-.329a6.085 6.085 0 0 0 1.876-.972 5.366 5.366 0 0 0 1.373-1.567c.36-.622.54-1.332.54-2.134 0-.956-.2-1.752-.602-2.385a5.2 5.2 0 0 0-1.588-1.588 9.909 9.909 0 0 0-2.252-1.064 155.07 155.07 0 0 0-2.596-.854 26.447 26.447 0 0 1-2.596-.971 9.052 9.052 0 0 1-2.251-1.378c-.658-.555-1.188-1.254-1.589-2.092-.4-.838-.601-1.892-.601-3.161 0-1.316.252-2.468.756-3.45a7.19 7.19 0 0 1 2.015-2.441A8.496 8.496 0 0 1 6.199.477 11.59 11.59 0 0 1 9.46.01c1.552 0 2.96.246 4.225.735 1.265.493 2.442 1.357 3.526 2.596L14.78 5.237ZM42.194 23.035 51.462.699h4.267v27.456h-2.792V4.42h-.077l-9.926 23.734h-1.475L31.532 4.42h-.077v23.734h-2.791V.699h4.267l9.263 22.336ZM68.02 28.155h-3.26L76.707.699h2.714l11.941 27.456h-3.259l-3.022-7.213H71.04l-3.022 7.213Zm4.07-9.772h11.906L78.064 3.958 72.09 18.383ZM103.191 28.155h-2.792V.699h8.451c2.792 0 4.997.607 6.611 1.825 1.614 1.213 2.421 3.048 2.421 5.506 0 1.912-.601 3.52-1.804 4.827-1.203 1.305-2.941 2.06-5.218 2.267l7.911 13.03h-3.413l-7.52-12.758h-4.653v12.759h.006Zm0-15.319h4.965c1.239 0 2.293-.129 3.162-.386.863-.257 1.557-.601 2.076-1.028.52-.426.89-.93 1.126-1.511.232-.58.35-1.208.35-1.881a4.91 4.91 0 0 0-.35-1.84c-.231-.582-.606-1.09-1.126-1.533-.519-.437-1.208-.78-2.076-1.028-.869-.246-1.918-.37-3.162-.37h-4.965v9.577ZM137.508 28.155h-2.791V3.259h-9.191V.7h21.173v2.56h-9.191v24.896ZM174.345 7.407c-.493-.622-1.157-1.079-1.994-1.377-.844-.298-1.635-.447-2.386-.447-.442 0-.889.051-1.357.154a5.23 5.23 0 0 0-1.316.483c-.416.221-.75.509-1.007.874-.257.36-.386.802-.386 1.316 0 .827.309 1.46.931 1.902.622.442 1.403.812 2.344 1.126.946.308 1.958.622 3.043.93 1.085.309 2.102.75 3.043 1.316a7.165 7.165 0 0 1 2.344 2.288c.622.956.931 2.236.931 3.84 0 1.526-.283 2.858-.854 3.994a8.119 8.119 0 0 1-2.308 2.832c-.971.75-2.092 1.306-3.372 1.666-1.28.36-2.632.545-4.051.545-1.784 0-3.439-.273-4.965-.813-1.527-.545-2.946-1.424-4.267-2.637l4.302-4.729a6.304 6.304 0 0 0 2.345 1.917 6.69 6.69 0 0 0 2.925.679c.493 0 .986-.057 1.49-.175a4.972 4.972 0 0 0 1.357-.524c.401-.232.725-.53.972-.89s.37-.786.37-1.28c0-.827-.319-1.48-.951-1.958-.632-.478-1.429-.884-2.385-1.223a72.3 72.3 0 0 0-3.105-1.008 13.762 13.762 0 0 1-3.1-1.357 7.442 7.442 0 0 1-2.385-2.252c-.632-.93-.951-2.159-.951-3.685 0-1.476.293-2.766.874-3.876a8.4 8.4 0 0 1 2.329-2.792c.971-.75 2.087-1.31 3.351-1.686 1.265-.375 2.57-.56 3.917-.56 1.553 0 3.049.221 4.498.658a10.388 10.388 0 0 1 3.917 2.21l-4.143 4.54ZM188.574.7h18.65v5.582H194.62v5.12h11.905v5.582H194.62v5.583h13.298v5.582h-19.349V.7h.005ZM218.086.7h8.22l11.674 19.076h.077V.699h6.05v27.456h-7.911L224.214 8.61h-.078v19.545h-6.05V.699ZM268.571 7.407c-.494-.622-1.157-1.079-1.995-1.377-.843-.298-1.634-.447-2.385-.447-.442 0-.889.051-1.357.154a5.23 5.23 0 0 0-1.316.483c-.416.221-.75.509-1.007.874-.257.36-.386.802-.386 1.316 0 .827.308 1.46.93 1.902.622.442 1.404.812 2.344 1.126a83.04 83.04 0 0 0 3.044.93c1.084.309 2.102.75 3.043 1.316a7.165 7.165 0 0 1 2.344 2.288c.622.956.93 2.236.93 3.84 0 1.526-.282 2.858-.853 3.994a8.14 8.14 0 0 1-2.308 2.832c-.972.75-2.092 1.306-3.372 1.666-1.28.36-2.632.545-4.051.545-1.784 0-3.439-.273-4.966-.813-1.526-.545-2.945-1.424-4.266-2.637l4.302-4.729a6.308 6.308 0 0 0 2.344 1.917 6.697 6.697 0 0 0 2.925.679c.494 0 .987-.057 1.491-.175a4.972 4.972 0 0 0 1.357-.524c.401-.232.725-.53.972-.89.246-.36.37-.786.37-1.28 0-.827-.319-1.48-.951-1.958-.632-.478-1.429-.884-2.385-1.223a72.3 72.3 0 0 0-3.105-1.008 13.742 13.742 0 0 1-3.1-1.357 7.442 7.442 0 0 1-2.385-2.252c-.632-.93-.951-2.159-.951-3.685 0-1.476.293-2.766.874-3.876a8.408 8.408 0 0 1 2.328-2.792c.972-.75 2.087-1.31 3.352-1.686 1.265-.375 2.57-.56 3.917-.56 1.553 0 3.048.221 4.498.658a10.396 10.396 0 0 1 3.917 2.21l-4.143 4.54ZM282.805.7h18.65v5.582H288.85v5.12h11.905v5.582H288.85v5.583h13.299v5.582h-19.344V.7ZM228.547 48.978h3.285c.457 0 .899.047 1.321.14.426.092.802.246 1.136.467.334.216.596.504.797.859.195.354.298.786.298 1.305 0 .602-.17 1.12-.504 1.547-.339.432-.817.72-1.439.864v.031c.776.062 1.388.334 1.83.817.442.483.663 1.126.663 1.938 0 .175-.046.437-.134.776-.087.345-.272.684-.55 1.018-.283.34-.684.633-1.213.88-.53.251-1.234.375-2.118.375h-3.362V48.978h-.01Zm1.121 4.822h2.256c.267 0 .535-.036.802-.102.267-.067.504-.18.715-.335.21-.154.385-.354.519-.601.133-.242.2-.54.2-.895 0-.113-.025-.272-.072-.483a1.548 1.548 0 0 0-.313-.622c-.16-.205-.396-.385-.71-.54-.313-.149-.73-.226-1.259-.226h-2.149V53.8h.011Zm0 5.172h2.148c.406 0 .782-.041 1.136-.124a2.86 2.86 0 0 0 .92-.38c.257-.17.463-.386.617-.648.149-.257.226-.57.226-.935 0-.725-.231-1.265-.699-1.62-.467-.354-1.151-.53-2.056-.53h-2.287v4.237h-.005ZM244.02 60h-1.121v-4.75l-4.128-6.276h1.404l3.284 5.202 3.285-5.202h1.404l-4.123 6.276V60h-.005ZM270.154 59.774h-2.688V45.56h2.688v14.214ZM275.829 55.379c0 1.387.597 2.2 2.478 2.2.725 0 1.475-.062 2.2-.17v-4.313h2.54v6.251c-1.496.427-3.265.642-4.76.642-3.481 0-5.146-1.47-5.146-4.292v-6.06c0-2.925 1.707-4.288 5.397-4.288 1.152 0 2.797.129 4.077.468l-.298 2.35c-1.301-.278-2.601-.386-3.989-.386-1.877 0-2.499.766-2.499 2.22v5.378ZM288.722 59.774h-2.689V45.56h2.689v14.214Z" fill="#fff"/><path d="M292.269 55.414v-9.89h9.885l-9.885 9.89Z" fill="#82C55C"/><path d="M259.76 45.56h-5.295v2.38l5.018-.01c1.814 0 2.303.725 2.303 2.092v5.295c0 1.367-.489 2.092-2.303 2.092h-2.329v-8.132l-2.689 2.688v7.814h5.295c3.501 0 4.719-1.794 4.719-3.82v-6.58c0-2.045-1.218-3.819-4.719-3.819Z" fill="#fff"/></svg>